<?xml version="1.0" encoding="UTF-8" standalone="no"?>
<!-- Created with Inkscape (http://www.inkscape.org/) -->

<svg
   width="210mm"
   height="297mm"
   viewBox="0 0 210 297"
   version="1.1"
   id="svg5"
   inkscape:version="1.2 (1:1.2.1+202207142221+cd75a1ee6d)"
   sodipodi:docname="drawing.svg"
   xmlns:inkscape="http://www.inkscape.org/namespaces/inkscape"
   xmlns:sodipodi="http://sodipodi.sourceforge.net/DTD/sodipodi-0.dtd"
   xmlns="http://www.w3.org/2000/svg"
   xmlns:svg="http://www.w3.org/2000/svg">
  <sodipodi:namedview
     id="namedview7"
     pagecolor="#ffffff"
     bordercolor="#666666"
     borderopacity="1.0"
     inkscape:showpageshadow="2"
     inkscape:pageopacity="0.0"
     inkscape:pagecheckerboard="0"
     inkscape:deskcolor="#d1d1d1"
     inkscape:document-units="mm"
     showgrid="false"
     showguides="true"
     inkscape:zoom="1.7914233"
     inkscape:cx="234.45044"
     inkscape:cy="512.72079"
     inkscape:window-width="932"
     inkscape:window-height="1016"
     inkscape:window-x="988"
     inkscape:window-y="27"
     inkscape:window-maximized="0"
     inkscape:current-layer="layer1" />
  <defs
     id="defs2" />
  <g
     inkscape:label="Layer 1"
     inkscape:groupmode="layer"
     id="layer1">
    <path
       style="fill:none;stroke:#000000;stroke-width:0.264583px;stroke-linecap:butt;stroke-linejoin:miter;stroke-opacity:1"
       d="M 8.1185977,10.26628 17.657946,37.883592"
       id="path113" />
    <path
       style="fill:none;stroke:#000000;stroke-width:0.264583px;stroke-linecap:butt;stroke-linejoin:miter;stroke-opacity:1"
       d="M 20.822584,12.541887 20.71826,29.272603"
       id="path115" />
    <path
       style="fill:#ffff00;stroke:#000000;stroke-width:0.25343px;stroke-linecap:butt;stroke-linejoin:miter;stroke-opacity:1"
       d="M 41.469706,29.845548 31.132238,11.220862 H 57.973353 L 41.278518,41.933424 28.945851,22.579106 l 4.742504,-9.521997 18.372649,-0.02086 z"
       id="path117"
       inkscape:transform-center-x="-11.176804"
       inkscape:transform-center-y="-13.46309" />
    <path
       style="fill:none;stroke:#000000;stroke-width:0.122221px;stroke-linecap:butt;stroke-linejoin:miter;stroke-opacity:1"
       d="m 74.212695,15.814315 c 6.327068,11.854686 9.780546,7.954117 9.153953,1.693064 -0.626592,-6.261054 8.55665,-7.8049632 7.672537,-3.697655 -3.299722,15.329453 -0.08615,11.682963 3.369184,20.589379 4.598743,11.853653 -13.723004,-8.494627 -18.487059,-0.407797 -5.631136,9.558669 -23.176178,10.48607 -10.72577,-0.832425 12.450409,-11.318495 -3.066953,-13.606759 1.484962,-18.303482 4.551915,-4.696725 7.532193,0.958916 7.532193,0.958916 z"
       id="path119"
       sodipodi:nodetypes="csssszsc" />
    <path
       id="rect377"
       style="opacity:1;fill:#008080;stroke:#008080;stroke-width:0.110412"
       d="M 20.750949,44.776837 17.625711,72.407651 11.613213,80.565841 6.9780997,44.776837 Z"
       sodipodi:nodetypes="ccccc" />
    <path
       style="fill:none;stroke:#000000;stroke-width:0.264583px;stroke-linecap:butt;stroke-linejoin:miter;stroke-opacity:1"
       d="M 25.744857,52.544457 H 45.040715 V 79.27407 H 26.747954 Z"
       id="path431"
       sodipodi:nodetypes="ccccc" />
    <path
       style="opacity:1;fill:#800080;stroke:#000000;stroke-width:0.264583"
       id="path486"
       sodipodi:type="arc"
       sodipodi:cx="69.336868"
       sodipodi:cy="62.638168"
       sodipodi:rx="16.840803"
       sodipodi:ry="16.840803"
       sodipodi:start="0"
       sodipodi:end="4.2175683"
       sodipodi:arc-type="slice"
       d="M 86.177671,62.638168 A 16.840803,16.840803 0 0 1 72.102016,79.250411 16.840803,16.840803 0 0 1 53.404103,68.093409 16.840803,16.840803 0 0 1 61.339611,47.817354 l 7.997257,14.820814 z" />
    <path
       style="fill:none;stroke:#000000;stroke-width:0.264583px;stroke-linecap:butt;stroke-linejoin:miter;stroke-opacity:1"
       d="m 13.543432,90.907573 c 0,0 4.539009,28.194017 19.275156,14.806177 14.736149,-13.387847 -19.2603,-15.531977 17.408387,-19.815629 36.668686,-4.283654 48.98037,-6.034542 32.463216,6.458207 -16.517151,12.492752 -37.800589,5.06939 -28.363037,-1.067351 9.437556,-6.13674 -8.989115,-3.137273 -11.27326,0.316376 -2.284143,3.453646 -6.687339,12.972427 3.802647,13.166827 10.489985,0.19438 10.042268,7.54542 -5.631807,8.09683 -15.674077,0.55141 -33.761241,3.45782 -34.7785337,-0.81087 -1.0172925,-4.26869 -6.07988484,-21.739146 -0.085115,-25.143522 5.9947687,-3.404372 7.1823467,3.992955 7.1823467,3.992955 z"
       id="path540" />
    <g
       id="g582"
       transform="translate(0.6758933,3.0681217)">
      <a
         id="a576">
        <path
           style="fill:#ff2a2a;stroke:#000000;stroke-width:0.264583px;stroke-linecap:butt;stroke-linejoin:miter;stroke-opacity:1"
           d="m 107.56838,99.806091 0.22628,-28.973068 c 0,0 -10.762276,-0.724573 -10.660194,-9.048161 0.100066,-8.159268 2.61873,-12.263998 10.600084,-12.329159 8.7686,-0.07159 11.719,1.054217 11.47324,10.68612 -0.24675,9.670796 -10.14089,10.948052 -10.14089,10.948052 l -0.44798,28.751411 z"
           id="path542"
           sodipodi:nodetypes="ccsssccc" />
        <path
           style="fill:#00ffff;stroke:#000000;stroke-width:0.264583px;stroke-linecap:butt;stroke-linejoin:miter;stroke-opacity:1"
           d="M 111.46258,57.068036 100.91497,42.874519 c 0,0 0.43215,-8.135226 3.77093,-9.574075 3.33878,-1.438849 10.69408,4.29352 10.69408,4.29352 z"
           id="path544"
           sodipodi:nodetypes="cczcc" />
        <path
           style="fill:#00ffff;stroke:#000000;stroke-width:0.264583px;stroke-linecap:butt;stroke-linejoin:miter;stroke-opacity:1"
           d="M 107.64377,59.658373 89.995393,58.543572 c 0,0 -5.931645,-5.584283 -4.873677,-9.062565 1.057968,-3.478281 10.184917,-5.391208 10.184917,-5.391208 z"
           id="path544-3"
           sodipodi:nodetypes="cczcc" />
      </a>
    </g>
    <g
       id="g943"
       transform="matrix(0.68340514,0,0,0.68340514,28.142812,-37.219976)">
      <path
         id="rect855"
         style="opacity:1;fill:#ffff00;stroke:#000000;stroke-width:0.264583"
         d="m 29.187348,226.96188 a 5.7053437,5.7053437 0 0 0 -7.366261,-3.29329 5.7053437,5.7053437 0 0 0 -3.292808,7.36608 5.7053437,5.7053437 0 0 0 3.576415,3.39212 l 10.627887,27.81467 6.679481,-2.55221 -10.627887,-27.81467 a 5.7053437,5.7053437 0 0 0 0.403173,-4.9127 z" />
      <path
         id="rect855-6"
         style="fill:#ffff00;stroke:#000000;stroke-width:0.264583"
         d="m 52.407126,226.96188 a 5.7053437,5.7053437 0 0 1 7.366261,-3.29329 5.7053437,5.7053437 0 0 1 3.292808,7.36608 5.7053437,5.7053437 0 0 1 -3.576415,3.39212 l -10.627887,27.81467 -6.679481,-2.55221 10.627887,-27.81467 a 5.7053437,5.7053437 0 0 1 -0.403173,-4.9127 z" />
    </g>
    <path
       style="fill:#008080;stroke:#000000;stroke-width:0.264583px;stroke-linecap:butt;stroke-linejoin:miter;stroke-opacity:1"
       d="m 43.694984,137.20005 24.252841,-0.0965 v 9.15854 h 9.160626 v 9.0982 H 67.80186 v 19.36372 H 43.623309 v -20.10366 h -9.017405 v -9.73749 l 9.115997,0.0594 z"
       id="path584"
       sodipodi:nodetypes="ccccccccccccc" />
    <circle
       style="opacity:1;fill:#ffffff;stroke:#000000;stroke-width:0.18451"
       id="path586"
       cx="51.532608"
       cy="150.13289"
       r="4.5933871" />
    <circle
       style="fill:#000000;stroke:#000000;stroke-width:0.104888"
       id="path586-7"
       cx="50.845875"
       cy="151.81839"
       r="2.6112015" />
    <circle
       style="fill:#ffffff;stroke:#000000;stroke-width:0.18451"
       id="path586-6"
       cx="61.238663"
       cy="149.86765"
       r="4.5933871" />
    <circle
       style="fill:#000000;stroke:#000000;stroke-width:0.104888"
       id="path586-7-5"
       cx="60.612476"
       cy="151.81839"
       r="2.6112015" />
    <rect
       style="opacity:1;fill:#e9afaf;stroke:#000000;stroke-width:0.264583"
       id="rect756"
       width="2.2434523"
       height="7.6838264"
       x="96.83432"
       y="120.88493" />
    <rect
       style="fill:#e9afaf;stroke:#000000;stroke-width:0.264583"
       id="rect756-5"
       width="2.2434523"
       height="7.6838264"
       x="99.37323"
       y="120.9538" />
    <path
       style="fill:none;stroke:#000000;stroke-width:0.264583px;stroke-linecap:butt;stroke-linejoin:miter;stroke-opacity:1"
       d="m 43.569868,181.22112 h 24.664977 v 6.05547 h 9.602144 v 8.24927 h -9.602144 v 20.39628 H 43.569868 v -20.22696 l -9.452446,-0.16932 v -8.24927 h 9.452446 z"
       id="path853" />
  </g>
</svg>
